<svg width="30" height="30" viewBox="0 0 30 30" fill="none" xmlns="http://www.w3.org/2000/svg">
<g clip-path="url(#clip0_153_242)">
<path d="M7.222 27C6.61058 27 6.08762 26.7823 5.65312 26.3469C5.21862 25.9115 5.00092 25.3894 5 24.7808V7.22062C5 6.61012 5.21771 6.08762 5.65312 5.65312C6.08854 5.21862 6.61104 5.00092 7.22062 5H13.0919C13.7024 5 14.2249 5.21771 14.6594 5.65312C15.0939 6.08854 15.3116 6.61104 15.3125 7.22062V24.7794C15.3125 25.3899 15.0948 25.9124 14.6594 26.3469C14.224 26.7814 13.7015 26.9991 13.0919 27H7.222ZM18.9095 27C18.2981 27 17.7751 26.7823 17.3406 26.3469C16.9061 25.9115 16.6884 25.389 16.6875 24.7794V18.2206C16.6875 17.6101 16.9052 17.0876 17.3406 16.6531C17.776 16.2186 18.2985 16.0009 18.9081 16H24.7794C25.3899 16 25.9124 16.2177 26.3469 16.6531C26.7814 17.0885 26.9991 17.611 27 18.2206V24.7794C27 25.3899 26.7823 25.9124 26.3469 26.3469C25.9115 26.7814 25.389 26.9991 24.7794 27H18.9095ZM18.9095 14.625C18.2981 14.625 17.7751 14.4073 17.3406 13.9719C16.9061 13.5365 16.6884 13.014 16.6875 12.4044V7.22062C16.6875 6.61012 16.9052 6.08762 17.3406 5.65312C17.776 5.21862 18.2985 5.00092 18.9081 5H24.7794C25.3899 5 25.9124 5.21771 26.3469 5.65312C26.7814 6.08854 26.9991 6.61104 27 7.22062V12.4044C27 13.0149 26.7823 13.5374 26.3469 13.9719C25.9115 14.4064 25.389 14.6241 24.7794 14.625H18.9095Z" fill="#E3E3E3"/>
</g>
<defs>
<clipPath id="clip0_153_242">
<rect width="30" height="30" fill="white"/>
</clipPath>
</defs>
</svg>
