<svg width="19" height="20" viewBox="0 0 19 20" fill="none" xmlns="http://www.w3.org/2000/svg">
<path d="M1.94241 13.2146C2.1651 13.4372 2.46709 13.5623 2.78197 13.5623C3.09686 13.5623 3.39885 13.4372 3.62154 13.2146L9.49966 7.33646L15.3778 13.2146C15.6018 13.4309 15.9017 13.5506 16.2131 13.5479C16.5244 13.5452 16.8223 13.4203 17.0424 13.2001C17.2626 12.98 17.3875 12.6821 17.3902 12.3708C17.3929 12.0594 17.2732 11.7594 17.0569 11.5355L10.3392 4.81778C10.1165 4.59515 9.81454 4.47009 9.49966 4.47009C9.18478 4.47009 8.88279 4.59515 8.6601 4.81778L1.94241 11.5355C1.71979 11.7582 1.59473 12.0601 1.59473 12.375C1.59473 12.6899 1.71979 12.9919 1.94241 13.2146Z" fill="#E3E3E3"/>
</svg>
