<svg width="162" height="46" viewBox="0 0 162 46" fill="none" xmlns="http://www.w3.org/2000/svg">
<path d="M19.5 5.75031C19.5997 5.75031 19.6966 5.77908 19.7793 5.83234L19.8564 5.89386C22.0477 7.99376 25.0805 9.17216 27.7236 9.82843L28.2471 9.95245L28.248 9.95343C29.1067 10.1472 29.9735 10.3024 30.8457 10.4193L31.7207 10.5228C31.8927 10.5406 32.0649 10.5565 32.2373 10.5706L32.7539 10.6077H32.7588L33.0254 10.6224H33.0322L33.0967 10.6243L33.1064 10.6253H33.1221L33.2207 10.637C33.318 10.6585 33.4079 10.7082 33.4785 10.7806C33.5724 10.8769 33.625 11.0064 33.625 11.1409V19.0628C33.6249 26.4631 29.7607 33.8722 20.1172 37.0775L19.6543 37.2269C19.5792 37.2503 19.4998 37.2561 19.4229 37.2444L19.3457 37.2269C14.5275 35.7217 11.0912 33.1832 8.83105 30.0696L8.61523 29.7669C6.36263 26.5186 5.37505 22.7048 5.375 18.8597V11.1409L5.38477 11.0413C5.39756 10.9759 5.4225 10.9135 5.45898 10.8577L5.52148 10.7806C5.59208 10.7082 5.68199 10.6585 5.7793 10.637L5.87793 10.6253H5.89551L5.90625 10.6243C6.13549 10.614 6.36492 10.6002 6.59375 10.5833L7.2793 10.5237V10.5228C8.04813 10.4432 9.07989 10.3045 10.2451 10.0628L10.7529 9.95245C13.424 9.34444 16.5993 8.20765 18.9209 6.10089L19.1436 5.89386C19.2395 5.80191 19.3671 5.75031 19.5 5.75031Z" fill="#1E5780" stroke="#0C2A40"/>
<mask id="path-2-outside-1_65_163" maskUnits="userSpaceOnUse" x="17" y="17" width="64" height="17" fill="black">
<rect fill="white" x="17" y="17" width="64" height="17"/>
<path d="M18.12 33V18.6H21.02L29.86 29.12V18.6H32.52V33H29.62L20.76 22.46V33H18.12ZM37.4806 33V18.6H40.1006V33H37.4806ZM45.078 33V18.6H56.678C57.1846 18.6 57.6513 18.7267 58.078 18.98C58.5046 19.2333 58.8446 19.5733 59.098 20C59.3513 20.4133 59.478 20.8733 59.478 21.38V30.22C59.478 30.7267 59.3513 31.1933 59.098 31.62C58.8446 32.0333 58.5046 32.3667 58.078 32.62C57.6513 32.8733 57.1846 33 56.678 33H45.078ZM47.938 30.34H56.558C56.6246 30.34 56.6846 30.32 56.738 30.28C56.7913 30.2267 56.818 30.1667 56.818 30.1V21.5C56.818 21.4333 56.7913 21.38 56.738 21.34C56.6846 21.2867 56.6246 21.26 56.558 21.26H47.938C47.8713 21.26 47.8113 21.2867 47.758 21.34C47.718 21.38 47.698 21.4333 47.698 21.5V30.1C47.698 30.1667 47.718 30.2267 47.758 30.28C47.8113 30.32 47.8713 30.34 47.938 30.34ZM67.4377 33C66.931 33 66.4643 32.8733 66.0377 32.62C65.6243 32.3667 65.291 32.0333 65.0377 31.62C64.7843 31.1933 64.6577 30.7267 64.6577 30.22V29.12H67.2977V30.1C67.2977 30.1667 67.3177 30.2267 67.3577 30.28C67.411 30.32 67.471 30.34 67.5377 30.34H76.1577C76.2243 30.34 76.2777 30.32 76.3177 30.28C76.371 30.2267 76.3977 30.1667 76.3977 30.1V27.36C76.3977 27.2933 76.371 27.24 76.3177 27.2C76.2777 27.16 76.2243 27.14 76.1577 27.14H67.4377C66.931 27.14 66.4643 27.0133 66.0377 26.76C65.6243 26.5067 65.291 26.1733 65.0377 25.76C64.7843 25.3333 64.6577 24.86 64.6577 24.34V21.38C64.6577 20.8733 64.7843 20.4133 65.0377 20C65.291 19.5733 65.6243 19.2333 66.0377 18.98C66.4643 18.7267 66.931 18.6 67.4377 18.6H76.2777C76.7843 18.6 77.2443 18.7267 77.6577 18.98C78.0843 19.2333 78.4243 19.5733 78.6777 20C78.931 20.4133 79.0577 20.8733 79.0577 21.38V22.48H76.3977V21.5C76.3977 21.4333 76.371 21.38 76.3177 21.34C76.2777 21.2867 76.2243 21.26 76.1577 21.26H67.5377C67.471 21.26 67.411 21.2867 67.3577 21.34C67.3177 21.38 67.2977 21.4333 67.2977 21.5V24.24C67.2977 24.3067 67.3177 24.36 67.3577 24.4C67.411 24.44 67.471 24.46 67.5377 24.46H76.2777C76.7843 24.46 77.2443 24.5867 77.6577 24.84C78.0843 25.0933 78.4243 25.4333 78.6777 25.86C78.931 26.2733 79.0577 26.74 79.0577 27.26V30.22C79.0577 30.7267 78.931 31.1933 78.6777 31.62C78.4243 32.0333 78.0843 32.3667 77.6577 32.62C77.2443 32.8733 76.7843 33 76.2777 33H67.4377Z"/>
</mask>
<path d="M18.12 33V18.6H21.02L29.86 29.12V18.6H32.52V33H29.62L20.76 22.46V33H18.12ZM37.4806 33V18.6H40.1006V33H37.4806ZM45.078 33V18.6H56.678C57.1846 18.6 57.6513 18.7267 58.078 18.98C58.5046 19.2333 58.8446 19.5733 59.098 20C59.3513 20.4133 59.478 20.8733 59.478 21.38V30.22C59.478 30.7267 59.3513 31.1933 59.098 31.62C58.8446 32.0333 58.5046 32.3667 58.078 32.62C57.6513 32.8733 57.1846 33 56.678 33H45.078ZM47.938 30.34H56.558C56.6246 30.34 56.6846 30.32 56.738 30.28C56.7913 30.2267 56.818 30.1667 56.818 30.1V21.5C56.818 21.4333 56.7913 21.38 56.738 21.34C56.6846 21.2867 56.6246 21.26 56.558 21.26H47.938C47.8713 21.26 47.8113 21.2867 47.758 21.34C47.718 21.38 47.698 21.4333 47.698 21.5V30.1C47.698 30.1667 47.718 30.2267 47.758 30.28C47.8113 30.32 47.8713 30.34 47.938 30.34ZM67.4377 33C66.931 33 66.4643 32.8733 66.0377 32.62C65.6243 32.3667 65.291 32.0333 65.0377 31.62C64.7843 31.1933 64.6577 30.7267 64.6577 30.22V29.12H67.2977V30.1C67.2977 30.1667 67.3177 30.2267 67.3577 30.28C67.411 30.32 67.471 30.34 67.5377 30.34H76.1577C76.2243 30.34 76.2777 30.32 76.3177 30.28C76.371 30.2267 76.3977 30.1667 76.3977 30.1V27.36C76.3977 27.2933 76.371 27.24 76.3177 27.2C76.2777 27.16 76.2243 27.14 76.1577 27.14H67.4377C66.931 27.14 66.4643 27.0133 66.0377 26.76C65.6243 26.5067 65.291 26.1733 65.0377 25.76C64.7843 25.3333 64.6577 24.86 64.6577 24.34V21.38C64.6577 20.8733 64.7843 20.4133 65.0377 20C65.291 19.5733 65.6243 19.2333 66.0377 18.98C66.4643 18.7267 66.931 18.6 67.4377 18.6H76.2777C76.7843 18.6 77.2443 18.7267 77.6577 18.98C78.0843 19.2333 78.4243 19.5733 78.6777 20C78.931 20.4133 79.0577 20.8733 79.0577 21.38V22.48H76.3977V21.5C76.3977 21.4333 76.371 21.38 76.3177 21.34C76.2777 21.2867 76.2243 21.26 76.1577 21.26H67.5377C67.471 21.26 67.411 21.2867 67.3577 21.34C67.3177 21.38 67.2977 21.4333 67.2977 21.5V24.24C67.2977 24.3067 67.3177 24.36 67.3577 24.4C67.411 24.44 67.471 24.46 67.5377 24.46H76.2777C76.7843 24.46 77.2443 24.5867 77.6577 24.84C78.0843 25.0933 78.4243 25.4333 78.6777 25.86C78.931 26.2733 79.0577 26.74 79.0577 27.26V30.22C79.0577 30.7267 78.931 31.1933 78.6777 31.62C78.4243 32.0333 78.0843 32.3667 77.6577 32.62C77.2443 32.8733 76.7843 33 76.2777 33H67.4377Z" fill="#E3E3E3"/>
<path d="M18.12 33H17.12V34H18.12V33ZM18.12 18.6V17.6H17.12V18.6H18.12ZM21.02 18.6L21.7856 17.9567L21.4859 17.6H21.02V18.6ZM29.86 29.12L29.0944 29.7633L30.86 31.8645V29.12H29.86ZM29.86 18.6V17.6H28.86V18.6H29.86ZM32.52 18.6H33.52V17.6H32.52V18.6ZM32.52 33V34H33.52V33H32.52ZM29.62 33L28.8545 33.6435L29.1542 34H29.62V33ZM20.76 22.46L21.5255 21.8165L19.76 19.7163V22.46H20.76ZM20.76 33V34H21.76V33H20.76ZM19.12 33V18.6H17.12V33H19.12ZM18.12 19.6H21.02V17.6H18.12V19.6ZM20.2544 19.2433L29.0944 29.7633L30.6256 28.4767L21.7856 17.9567L20.2544 19.2433ZM30.86 29.12V18.6H28.86V29.12H30.86ZM29.86 19.6H32.52V17.6H29.86V19.6ZM31.52 18.6V33H33.52V18.6H31.52ZM32.52 32H29.62V34H32.52V32ZM30.3855 32.3565L21.5255 21.8165L19.9945 23.1035L28.8545 33.6435L30.3855 32.3565ZM19.76 22.46V33H21.76V22.46H19.76ZM20.76 32H18.12V34H20.76V32ZM37.4806 33H36.4806V34H37.4806V33ZM37.4806 18.6V17.6H36.4806V18.6H37.4806ZM40.1006 18.6H41.1006V17.6H40.1006V18.6ZM40.1006 33V34H41.1006V33H40.1006ZM38.4806 33V18.6H36.4806V33H38.4806ZM37.4806 19.6H40.1006V17.6H37.4806V19.6ZM39.1006 18.6V33H41.1006V18.6H39.1006ZM40.1006 32H37.4806V34H40.1006V32ZM45.078 33H44.078V34H45.078V33ZM45.078 18.6V17.6H44.078V18.6H45.078ZM58.078 18.98L57.5674 19.8399V19.8399L58.078 18.98ZM59.098 20L58.238 20.5106L58.2454 20.5226L59.098 20ZM59.098 31.62L59.9507 32.1426L59.9578 32.1305L59.098 31.62ZM58.078 32.62L57.5674 31.7601L58.078 32.62ZM56.738 30.28L57.338 31.08L57.3948 31.0374L57.4451 30.9871L56.738 30.28ZM56.738 21.34L56.0309 22.0471L56.0811 22.0974L56.138 22.14L56.738 21.34ZM47.758 21.34L48.4651 22.0471L48.4651 22.0471L47.758 21.34ZM47.758 30.28L46.958 30.88L47.0437 30.9943L47.158 31.08L47.758 30.28ZM46.078 33V18.6H44.078V33H46.078ZM45.078 19.6H56.678V17.6H45.078V19.6ZM56.678 19.6C57.0089 19.6 57.2986 19.6803 57.5674 19.8399L58.5885 18.1201C58.004 17.7731 57.3603 17.6 56.678 17.6V19.6ZM57.5674 19.8399C57.8503 20.0078 58.0702 20.2277 58.2381 20.5105L59.9578 19.4895C59.6191 18.919 59.159 18.4589 58.5885 18.1201L57.5674 19.8399ZM58.2454 20.5226C58.3979 20.7714 58.478 21.0491 58.478 21.38H60.478C60.478 20.6976 60.3047 20.0553 59.9506 19.4774L58.2454 20.5226ZM58.478 21.38V30.22H60.478V21.38H58.478ZM58.478 30.22C58.478 30.551 58.3977 30.8407 58.2381 31.1095L59.9578 32.1305C60.3049 31.546 60.478 30.9024 60.478 30.22H58.478ZM58.2454 31.0974C58.079 31.3689 57.8578 31.5877 57.5674 31.7601L58.5885 33.4799C59.1515 33.1456 59.6103 32.6978 59.9506 32.1426L58.2454 31.0974ZM57.5674 31.7601C57.2986 31.9197 57.0089 32 56.678 32V34C57.3603 34 58.004 33.8269 58.5885 33.4799L57.5674 31.7601ZM56.678 32H45.078V34H56.678V32ZM47.938 31.34H56.558V29.34H47.938V31.34ZM56.558 31.34C56.841 31.34 57.1115 31.2498 57.338 31.08L56.138 29.48C56.2577 29.3902 56.4083 29.34 56.558 29.34V31.34ZM57.4451 30.9871C57.6591 30.7731 57.818 30.4676 57.818 30.1H55.818C55.818 29.9956 55.8398 29.8887 55.8842 29.7889C55.9275 29.6913 55.9835 29.6203 56.0309 29.5729L57.4451 30.9871ZM57.818 30.1V21.5H55.818V30.1H57.818ZM57.818 21.5C57.818 21.1186 57.6431 20.7688 57.338 20.54L56.138 22.14C56.0553 22.078 55.9675 21.9851 55.9035 21.8572C55.8396 21.7294 55.818 21.6034 55.818 21.5H57.818ZM57.4451 20.6329C57.2311 20.4189 56.9256 20.26 56.558 20.26V22.26C56.4536 22.26 56.3467 22.2382 56.2468 22.1938C56.1493 22.1505 56.0782 22.0945 56.0309 22.0471L57.4451 20.6329ZM56.558 20.26H47.938V22.26H56.558V20.26ZM47.938 20.26C47.5704 20.26 47.2649 20.4189 47.0509 20.6329L48.4651 22.0471C48.4177 22.0945 48.3466 22.1505 48.2491 22.1938C48.1492 22.2382 48.0423 22.26 47.938 22.26V20.26ZM47.0509 20.6329C46.7901 20.8936 46.698 21.2191 46.698 21.5H48.698C48.698 21.5665 48.6879 21.6582 48.6493 21.7611C48.6095 21.8672 48.5467 21.9654 48.4651 22.0471L47.0509 20.6329ZM46.698 21.5V30.1H48.698V21.5H46.698ZM46.698 30.1C46.698 30.383 46.7881 30.6536 46.958 30.88L48.558 29.68C48.6478 29.7998 48.698 29.9503 48.698 30.1H46.698ZM47.158 31.08C47.3844 31.2498 47.6549 31.34 47.938 31.34V29.34C48.0877 29.34 48.2382 29.3902 48.358 29.48L47.158 31.08ZM66.0377 32.62L65.515 33.4727L65.5271 33.4799L66.0377 32.62ZM65.0377 31.62L64.1777 32.1306L64.1851 32.1426L65.0377 31.62ZM64.6577 29.12V28.12H63.6577V29.12H64.6577ZM67.2977 29.12H68.2977V28.12H67.2977V29.12ZM67.3577 30.28L66.5577 30.88L66.6434 30.9943L66.7577 31.08L67.3577 30.28ZM76.3177 30.28L77.0248 30.9871L76.3177 30.28ZM76.3177 27.2L75.6106 27.9071L75.6608 27.9574L75.7177 28L76.3177 27.2ZM66.0377 26.76L65.515 27.6127L65.5271 27.6199L66.0377 26.76ZM65.0377 25.76L64.1777 26.2706L64.1851 26.2826L65.0377 25.76ZM65.0377 20L65.8903 20.5226L65.8975 20.5105L65.0377 20ZM66.0377 18.98L65.5271 18.1201L65.5151 18.1274L66.0377 18.98ZM77.6577 18.98L77.135 19.8327L77.1471 19.8399L77.6577 18.98ZM78.6777 20L77.8177 20.5106L77.8251 20.5226L78.6777 20ZM79.0577 22.48V23.48H80.0577V22.48H79.0577ZM76.3977 22.48H75.3977V23.48H76.3977V22.48ZM76.3177 21.34L75.5177 21.94L75.6034 22.0543L75.7177 22.14L76.3177 21.34ZM67.3577 21.34L68.0648 22.0471L68.0648 22.0471L67.3577 21.34ZM67.3577 24.4L66.6505 25.1071L66.7008 25.1574L66.7577 25.2L67.3577 24.4ZM77.6577 24.84L77.135 25.6927L77.1471 25.6999L77.6577 24.84ZM78.6777 25.86L77.8177 26.3706L77.8251 26.3826L78.6777 25.86ZM78.6777 31.62L79.5303 32.1426L79.5375 32.1305L78.6777 31.62ZM77.6577 32.62L77.1471 31.7601L77.1351 31.7674L77.6577 32.62ZM67.4377 32C67.1067 32 66.817 31.9197 66.5482 31.7601L65.5271 33.4799C66.1117 33.8269 66.7553 34 67.4377 34V32ZM66.5602 31.7674C66.2814 31.5965 66.0612 31.3763 65.8903 31.0974L64.1851 32.1426C64.5208 32.6904 64.9673 33.1368 65.5151 33.4726L66.5602 31.7674ZM65.8975 31.1095C65.7379 30.8407 65.6577 30.551 65.6577 30.22H63.6577C63.6577 30.9024 63.8307 31.546 64.1778 32.1305L65.8975 31.1095ZM65.6577 30.22V29.12H63.6577V30.22H65.6577ZM64.6577 30.12H67.2977V28.12H64.6577V30.12ZM66.2977 29.12V30.1H68.2977V29.12H66.2977ZM66.2977 30.1C66.2977 30.383 66.3878 30.6536 66.5577 30.88L68.1577 29.68C68.2475 29.7998 68.2977 29.9503 68.2977 30.1H66.2977ZM66.7577 31.08C66.9841 31.2498 67.2546 31.34 67.5377 31.34V29.34C67.6874 29.34 67.8379 29.3902 67.9577 29.48L66.7577 31.08ZM67.5377 31.34H76.1577V29.34H67.5377V31.34ZM76.1577 31.34C76.4386 31.34 76.764 31.2478 77.0248 30.9871L75.6106 29.5729C75.6922 29.4912 75.7905 29.4284 75.8965 29.3887C75.9995 29.3501 76.0911 29.34 76.1577 29.34V31.34ZM77.0248 30.9871C77.2388 30.7731 77.3977 30.4676 77.3977 30.1H75.3977C75.3977 29.9956 75.4195 29.8887 75.4638 29.7889C75.5072 29.6913 75.5632 29.6203 75.6105 29.5729L77.0248 30.9871ZM77.3977 30.1V27.36H75.3977V30.1H77.3977ZM77.3977 27.36C77.3977 26.9786 77.2228 26.6289 76.9177 26.4L75.7177 28C75.6349 27.938 75.5472 27.8451 75.4832 27.7172C75.4193 27.5894 75.3977 27.4634 75.3977 27.36H77.3977ZM77.0248 26.4929C76.764 26.2322 76.4386 26.14 76.1577 26.14V28.14C76.0911 28.14 75.9995 28.1299 75.8965 28.0913C75.7905 28.0516 75.6922 27.9888 75.6106 27.9071L77.0248 26.4929ZM76.1577 26.14H67.4377V28.14H76.1577V26.14ZM67.4377 26.14C67.1067 26.14 66.817 26.0597 66.5482 25.9001L65.5271 27.6199C66.1117 27.9669 66.7553 28.14 67.4377 28.14V26.14ZM66.5602 25.9074C66.2814 25.7365 66.0611 25.5163 65.8903 25.2374L64.1851 26.2826C64.5208 26.8304 64.9673 27.2768 65.5151 27.6126L66.5602 25.9074ZM65.8975 25.2495C65.7404 24.9848 65.6577 24.6893 65.6577 24.34H63.6577C63.6577 25.0307 63.8283 25.6818 64.1778 26.2705L65.8975 25.2495ZM65.6577 24.34V21.38H63.6577V24.34H65.6577ZM65.6577 21.38C65.6577 21.0491 65.7378 20.7714 65.8903 20.5226L64.1851 19.4774C63.8309 20.0553 63.6577 20.6976 63.6577 21.38H65.6577ZM65.8975 20.5105C66.0699 20.2202 66.2888 19.999 66.5602 19.8326L65.5151 18.1274C64.9599 18.4677 64.5121 18.9265 64.1778 19.4895L65.8975 20.5105ZM66.5482 19.8399C66.817 19.6803 67.1067 19.6 67.4377 19.6V17.6C66.7553 17.6 66.1117 17.7731 65.5271 18.1201L66.5482 19.8399ZM67.4377 19.6H76.2777V17.6H67.4377V19.6ZM76.2777 19.6C76.6086 19.6 76.8863 19.6801 77.1351 19.8326L78.1802 18.1274C77.6024 17.7732 76.9601 17.6 76.2777 17.6V19.6ZM77.1471 19.8399C77.43 20.0078 77.6499 20.2277 77.8178 20.5105L79.5375 19.4895C79.1988 18.919 78.7387 18.4589 78.1682 18.1201L77.1471 19.8399ZM77.8251 20.5226C77.9775 20.7714 78.0577 21.0491 78.0577 21.38H80.0577C80.0577 20.6976 79.8844 20.0553 79.5303 19.4774L77.8251 20.5226ZM78.0577 21.38V22.48H80.0577V21.38H78.0577ZM79.0577 21.48H76.3977V23.48H79.0577V21.48ZM77.3977 22.48V21.5H75.3977V22.48H77.3977ZM77.3977 21.5C77.3977 21.1186 77.2228 20.7688 76.9177 20.54L75.7177 22.14C75.635 22.078 75.5472 21.9851 75.4832 21.8572C75.4193 21.7294 75.3977 21.6034 75.3977 21.5H77.3977ZM77.1177 20.74C76.8888 20.4349 76.5391 20.26 76.1577 20.26V22.26C76.0543 22.26 75.9283 22.2384 75.8004 22.1744C75.6726 22.1105 75.5797 22.0227 75.5177 21.94L77.1177 20.74ZM76.1577 20.26H67.5377V22.26H76.1577V20.26ZM67.5377 20.26C67.1701 20.26 66.8646 20.4189 66.6505 20.6329L68.0648 22.0471C68.0174 22.0945 67.9463 22.1505 67.8488 22.1938C67.7489 22.2382 67.642 22.26 67.5377 22.26V20.26ZM66.6506 20.6329C66.3898 20.8936 66.2977 21.2191 66.2977 21.5H68.2977C68.2977 21.5665 68.2876 21.6582 68.249 21.7611C68.2092 21.8672 68.1464 21.9655 68.0648 22.0471L66.6506 20.6329ZM66.2977 21.5V24.24H68.2977V21.5H66.2977ZM66.2977 24.24C66.2977 24.5209 66.3898 24.8464 66.6505 25.1071L68.0648 23.6929C68.1464 23.7746 68.2092 23.8728 68.249 23.9789C68.2876 24.0818 68.2977 24.1735 68.2977 24.24H66.2977ZM66.7577 25.2C66.9841 25.3698 67.2546 25.46 67.5377 25.46V23.46C67.6874 23.46 67.8379 23.5102 67.9577 23.6L66.7577 25.2ZM67.5377 25.46H76.2777V23.46H67.5377V25.46ZM76.2777 25.46C76.6086 25.46 76.8863 25.5401 77.1351 25.6926L78.1802 23.9874C77.6024 23.6332 76.9601 23.46 76.2777 23.46V25.46ZM77.1471 25.6999C77.43 25.8678 77.6499 26.0877 77.8178 26.3705L79.5375 25.3495C79.1988 24.779 78.7387 24.3189 78.1682 23.9801L77.1471 25.6999ZM77.8251 26.3826C77.975 26.6272 78.0577 26.9105 78.0577 27.26H80.0577C80.0577 26.5695 79.887 25.9195 79.5303 25.3374L77.8251 26.3826ZM78.0577 27.26V30.22H80.0577V27.26H78.0577ZM78.0577 30.22C78.0577 30.551 77.9774 30.8407 77.8178 31.1095L79.5375 32.1305C79.8846 31.546 80.0577 30.9024 80.0577 30.22H78.0577ZM77.8251 31.0974C77.6587 31.3689 77.4375 31.5877 77.1471 31.7601L78.1682 33.4799C78.7312 33.1456 79.1899 32.6978 79.5303 32.1426L77.8251 31.0974ZM77.1351 31.7674C76.8863 31.9199 76.6086 32 76.2777 32V34C76.9601 34 77.6024 33.8268 78.1802 33.4726L77.1351 31.7674ZM76.2777 32H67.4377V34H76.2777V32Z" fill="#0C2A40" mask="url(#path-2-outside-1_65_163)"/>
<path d="M19.5 35.4333C21.7875 35.4333 23.5 37.6092 23.5 40.1023C23.5 42.5953 21.7875 44.7712 19.5 44.7712C17.2125 44.7712 15.5 42.5953 15.5 40.1023C15.5 37.6092 17.2125 35.4333 19.5 35.4333Z" fill="#D9D9D9" stroke="#0C2A40"/>
<path d="M89.024 33V23.608H84.32V21.48H95.84V23.608H91.152V33H89.024ZM98.3053 33C97.8999 33 97.5319 32.8987 97.2013 32.696C96.8706 32.4933 96.6039 32.2267 96.4013 31.896C96.1986 31.5653 96.0973 31.1973 96.0973 30.792V25.928C96.0973 25.5227 96.1986 25.1547 96.4013 24.824C96.6039 24.4933 96.8706 24.2267 97.2013 24.024C97.5319 23.8213 97.8999 23.72 98.3053 23.72H103.313C103.719 23.72 104.087 23.8213 104.417 24.024C104.759 24.2267 105.025 24.4933 105.217 24.824C105.42 25.1547 105.521 25.5227 105.521 25.928V30.792C105.521 31.1973 105.42 31.5653 105.217 31.896C105.025 32.2267 104.764 32.4933 104.433 32.696C104.103 32.8987 103.729 33 103.313 33H98.3053ZM98.3853 30.904H103.233C103.287 30.904 103.329 30.888 103.361 30.856C103.404 30.8133 103.425 30.7653 103.425 30.712V26.008C103.425 25.9547 103.404 25.912 103.361 25.88C103.329 25.8373 103.287 25.816 103.233 25.816H98.3853C98.3319 25.816 98.2839 25.8373 98.2413 25.88C98.2093 25.912 98.1933 25.9547 98.1933 26.008V30.712C98.1933 30.7653 98.2093 30.8133 98.2413 30.856C98.2839 30.888 98.3319 30.904 98.3853 30.904ZM112.162 33V21.48H114.29V26.168H116.994L120.93 21.48H123.234V22.088L118.914 27.24L123.25 32.392V33H120.93L116.994 28.312H114.29V33H112.162ZM124.864 33V23.72H132.08C132.485 23.72 132.853 23.8213 133.184 24.024C133.525 24.2267 133.792 24.4933 133.984 24.824C134.187 25.1547 134.288 25.5227 134.288 25.928V33H132.192V26.008C132.192 25.9547 132.171 25.912 132.128 25.88C132.096 25.8373 132.053 25.816 132 25.816H127.152C127.099 25.816 127.051 25.8373 127.008 25.88C126.976 25.912 126.96 25.9547 126.96 26.008V33H124.864ZM137.821 33C137.416 33 137.048 32.8987 136.717 32.696C136.386 32.4933 136.12 32.2267 135.917 31.896C135.714 31.5653 135.613 31.1973 135.613 30.792V25.928C135.613 25.5227 135.714 25.1547 135.917 24.824C136.12 24.4933 136.386 24.2267 136.717 24.024C137.048 23.8213 137.416 23.72 137.821 23.72H142.829C143.234 23.72 143.602 23.8213 143.933 24.024C144.274 24.2267 144.541 24.4933 144.733 24.824C144.936 25.1547 145.037 25.5227 145.037 25.928V30.792C145.037 31.1973 144.936 31.5653 144.733 31.896C144.541 32.2267 144.28 32.4933 143.949 32.696C143.618 32.8987 143.245 33 142.829 33H137.821ZM137.901 30.904H142.749C142.802 30.904 142.845 30.888 142.877 30.856C142.92 30.8133 142.941 30.7653 142.941 30.712V26.008C142.941 25.9547 142.92 25.912 142.877 25.88C142.845 25.8373 142.802 25.816 142.749 25.816H137.901C137.848 25.816 137.8 25.8373 137.757 25.88C137.725 25.912 137.709 25.9547 137.709 26.008V30.712C137.709 30.7653 137.725 30.8133 137.757 30.856C137.8 30.888 137.848 30.904 137.901 30.904ZM149.13 33L145.482 23.72H147.706L149.962 29.192L152.33 23.72H154.506L157.034 29.224L159.13 23.72H161.354L157.866 33H156.234L153.434 26.808L150.762 33H149.13Z" fill="#E3E3E3"/>
</svg>
