<svg width="162" height="40" viewBox="0 0 162 40" fill="none" xmlns="http://www.w3.org/2000/svg">
<path d="M19.5 6.25024C19.5997 6.25024 19.6966 6.27902 19.7793 6.33228L19.8564 6.3938C22.0477 8.4937 25.0805 9.6721 27.7236 10.3284L28.2471 10.4524L28.248 10.4534C29.1067 10.6471 29.9735 10.8023 30.8457 10.9192L31.7207 11.0227C31.8927 11.0405 32.0649 11.0564 32.2373 11.0706L32.7539 11.1077H32.7588L33.0254 11.1223H33.0322L33.0967 11.1243L33.1064 11.1252H33.1221L33.2207 11.137C33.318 11.1585 33.4079 11.2082 33.4785 11.2805C33.5724 11.3768 33.625 11.5064 33.625 11.6409V19.5627C33.6249 26.9631 29.7607 34.3721 20.1172 37.5774L19.6543 37.7268C19.5792 37.7503 19.4998 37.7561 19.4229 37.7444L19.3457 37.7268C14.5275 36.2216 11.0912 33.6831 8.83105 30.5696L8.61523 30.2668C6.36263 27.0185 5.37505 23.2048 5.375 19.3596V11.6409L5.38477 11.5413C5.39756 11.4759 5.4225 11.4134 5.45898 11.3577L5.52148 11.2805C5.59208 11.2082 5.68199 11.1585 5.7793 11.137L5.87793 11.1252H5.89551L5.90625 11.1243C6.13549 11.1139 6.36492 11.1001 6.59375 11.0833L7.2793 11.0237V11.0227C8.04813 10.9431 9.07989 10.8045 10.2451 10.5627L10.7529 10.4524C13.424 9.84438 16.5993 8.70759 18.9209 6.60083L19.1436 6.3938C19.2395 6.30184 19.3671 6.25024 19.5 6.25024Z" fill="#1E5780" stroke="#0C2A40"/>
<mask id="path-2-outside-1_44_49" maskUnits="userSpaceOnUse" x="17" y="17.5" width="64" height="17" fill="black">
<rect fill="white" x="17" y="17.5" width="64" height="17"/>
<path d="M18.12 33.5V19.1H21.02L29.86 29.62V19.1H32.52V33.5H29.62L20.76 22.96V33.5H18.12ZM37.4806 33.5V19.1H40.1006V33.5H37.4806ZM45.078 33.5V19.1H56.678C57.1846 19.1 57.6513 19.2267 58.078 19.48C58.5046 19.7333 58.8446 20.0733 59.098 20.5C59.3513 20.9133 59.478 21.3733 59.478 21.88V30.72C59.478 31.2267 59.3513 31.6933 59.098 32.12C58.8446 32.5333 58.5046 32.8667 58.078 33.12C57.6513 33.3733 57.1846 33.5 56.678 33.5H45.078ZM47.938 30.84H56.558C56.6246 30.84 56.6846 30.82 56.738 30.78C56.7913 30.7267 56.818 30.6667 56.818 30.6V22C56.818 21.9333 56.7913 21.88 56.738 21.84C56.6846 21.7867 56.6246 21.76 56.558 21.76H47.938C47.8713 21.76 47.8113 21.7867 47.758 21.84C47.718 21.88 47.698 21.9333 47.698 22V30.6C47.698 30.6667 47.718 30.7267 47.758 30.78C47.8113 30.82 47.8713 30.84 47.938 30.84ZM67.4377 33.5C66.931 33.5 66.4643 33.3733 66.0377 33.12C65.6243 32.8667 65.291 32.5333 65.0377 32.12C64.7843 31.6933 64.6577 31.2267 64.6577 30.72V29.62H67.2977V30.6C67.2977 30.6667 67.3177 30.7267 67.3577 30.78C67.411 30.82 67.471 30.84 67.5377 30.84H76.1577C76.2243 30.84 76.2777 30.82 76.3177 30.78C76.371 30.7267 76.3977 30.6667 76.3977 30.6V27.86C76.3977 27.7933 76.371 27.74 76.3177 27.7C76.2777 27.66 76.2243 27.64 76.1577 27.64H67.4377C66.931 27.64 66.4643 27.5133 66.0377 27.26C65.6243 27.0067 65.291 26.6733 65.0377 26.26C64.7843 25.8333 64.6577 25.36 64.6577 24.84V21.88C64.6577 21.3733 64.7843 20.9133 65.0377 20.5C65.291 20.0733 65.6243 19.7333 66.0377 19.48C66.4643 19.2267 66.931 19.1 67.4377 19.1H76.2777C76.7843 19.1 77.2443 19.2267 77.6577 19.48C78.0843 19.7333 78.4243 20.0733 78.6777 20.5C78.931 20.9133 79.0577 21.3733 79.0577 21.88V22.98H76.3977V22C76.3977 21.9333 76.371 21.88 76.3177 21.84C76.2777 21.7867 76.2243 21.76 76.1577 21.76H67.5377C67.471 21.76 67.411 21.7867 67.3577 21.84C67.3177 21.88 67.2977 21.9333 67.2977 22V24.74C67.2977 24.8067 67.3177 24.86 67.3577 24.9C67.411 24.94 67.471 24.96 67.5377 24.96H76.2777C76.7843 24.96 77.2443 25.0867 77.6577 25.34C78.0843 25.5933 78.4243 25.9333 78.6777 26.36C78.931 26.7733 79.0577 27.24 79.0577 27.76V30.72C79.0577 31.2267 78.931 31.6933 78.6777 32.12C78.4243 32.5333 78.0843 32.8667 77.6577 33.12C77.2443 33.3733 76.7843 33.5 76.2777 33.5H67.4377Z"/>
</mask>
<path d="M18.12 33.5V19.1H21.02L29.86 29.62V19.1H32.52V33.5H29.62L20.76 22.96V33.5H18.12ZM37.4806 33.5V19.1H40.1006V33.5H37.4806ZM45.078 33.5V19.1H56.678C57.1846 19.1 57.6513 19.2267 58.078 19.48C58.5046 19.7333 58.8446 20.0733 59.098 20.5C59.3513 20.9133 59.478 21.3733 59.478 21.88V30.72C59.478 31.2267 59.3513 31.6933 59.098 32.12C58.8446 32.5333 58.5046 32.8667 58.078 33.12C57.6513 33.3733 57.1846 33.5 56.678 33.5H45.078ZM47.938 30.84H56.558C56.6246 30.84 56.6846 30.82 56.738 30.78C56.7913 30.7267 56.818 30.6667 56.818 30.6V22C56.818 21.9333 56.7913 21.88 56.738 21.84C56.6846 21.7867 56.6246 21.76 56.558 21.76H47.938C47.8713 21.76 47.8113 21.7867 47.758 21.84C47.718 21.88 47.698 21.9333 47.698 22V30.6C47.698 30.6667 47.718 30.7267 47.758 30.78C47.8113 30.82 47.8713 30.84 47.938 30.84ZM67.4377 33.5C66.931 33.5 66.4643 33.3733 66.0377 33.12C65.6243 32.8667 65.291 32.5333 65.0377 32.12C64.7843 31.6933 64.6577 31.2267 64.6577 30.72V29.62H67.2977V30.6C67.2977 30.6667 67.3177 30.7267 67.3577 30.78C67.411 30.82 67.471 30.84 67.5377 30.84H76.1577C76.2243 30.84 76.2777 30.82 76.3177 30.78C76.371 30.7267 76.3977 30.6667 76.3977 30.6V27.86C76.3977 27.7933 76.371 27.74 76.3177 27.7C76.2777 27.66 76.2243 27.64 76.1577 27.64H67.4377C66.931 27.64 66.4643 27.5133 66.0377 27.26C65.6243 27.0067 65.291 26.6733 65.0377 26.26C64.7843 25.8333 64.6577 25.36 64.6577 24.84V21.88C64.6577 21.3733 64.7843 20.9133 65.0377 20.5C65.291 20.0733 65.6243 19.7333 66.0377 19.48C66.4643 19.2267 66.931 19.1 67.4377 19.1H76.2777C76.7843 19.1 77.2443 19.2267 77.6577 19.48C78.0843 19.7333 78.4243 20.0733 78.6777 20.5C78.931 20.9133 79.0577 21.3733 79.0577 21.88V22.98H76.3977V22C76.3977 21.9333 76.371 21.88 76.3177 21.84C76.2777 21.7867 76.2243 21.76 76.1577 21.76H67.5377C67.471 21.76 67.411 21.7867 67.3577 21.84C67.3177 21.88 67.2977 21.9333 67.2977 22V24.74C67.2977 24.8067 67.3177 24.86 67.3577 24.9C67.411 24.94 67.471 24.96 67.5377 24.96H76.2777C76.7843 24.96 77.2443 25.0867 77.6577 25.34C78.0843 25.5933 78.4243 25.9333 78.6777 26.36C78.931 26.7733 79.0577 27.24 79.0577 27.76V30.72C79.0577 31.2267 78.931 31.6933 78.6777 32.12C78.4243 32.5333 78.0843 32.8667 77.6577 33.12C77.2443 33.3733 76.7843 33.5 76.2777 33.5H67.4377Z" fill="#E3E3E3"/>
<path d="M18.12 33.5H17.12V34.5H18.12V33.5ZM18.12 19.1V18.1H17.12V19.1H18.12ZM21.02 19.1L21.7856 18.4567L21.4859 18.1H21.02V19.1ZM29.86 29.62L29.0944 30.2633L30.86 32.3645V29.62H29.86ZM29.86 19.1V18.1H28.86V19.1H29.86ZM32.52 19.1H33.52V18.1H32.52V19.1ZM32.52 33.5V34.5H33.52V33.5H32.52ZM29.62 33.5L28.8545 34.1435L29.1542 34.5H29.62V33.5ZM20.76 22.96L21.5255 22.3165L19.76 20.2163V22.96H20.76ZM20.76 33.5V34.5H21.76V33.5H20.76ZM19.12 33.5V19.1H17.12V33.5H19.12ZM18.12 20.1H21.02V18.1H18.12V20.1ZM20.2544 19.7433L29.0944 30.2633L30.6256 28.9767L21.7856 18.4567L20.2544 19.7433ZM30.86 29.62V19.1H28.86V29.62H30.86ZM29.86 20.1H32.52V18.1H29.86V20.1ZM31.52 19.1V33.5H33.52V19.1H31.52ZM32.52 32.5H29.62V34.5H32.52V32.5ZM30.3855 32.8565L21.5255 22.3165L19.9945 23.6035L28.8545 34.1435L30.3855 32.8565ZM19.76 22.96V33.5H21.76V22.96H19.76ZM20.76 32.5H18.12V34.5H20.76V32.5ZM37.4806 33.5H36.4806V34.5H37.4806V33.5ZM37.4806 19.1V18.1H36.4806V19.1H37.4806ZM40.1006 19.1H41.1006V18.1H40.1006V19.1ZM40.1006 33.5V34.5H41.1006V33.5H40.1006ZM38.4806 33.5V19.1H36.4806V33.5H38.4806ZM37.4806 20.1H40.1006V18.1H37.4806V20.1ZM39.1006 19.1V33.5H41.1006V19.1H39.1006ZM40.1006 32.5H37.4806V34.5H40.1006V32.5ZM45.078 33.5H44.078V34.5H45.078V33.5ZM45.078 19.1V18.1H44.078V19.1H45.078ZM58.078 19.48L57.5674 20.3399V20.3399L58.078 19.48ZM59.098 20.5L58.238 21.0106L58.2454 21.0226L59.098 20.5ZM59.098 32.12L59.9507 32.6426L59.9578 32.6305L59.098 32.12ZM58.078 33.12L57.5674 32.2601L58.078 33.12ZM56.738 30.78L57.338 31.58L57.3948 31.5374L57.4451 31.4871L56.738 30.78ZM56.738 21.84L56.0309 22.5471L56.0811 22.5974L56.138 22.64L56.738 21.84ZM47.758 21.84L48.4651 22.5471L48.4651 22.5471L47.758 21.84ZM47.758 30.78L46.958 31.38L47.0437 31.4943L47.158 31.58L47.758 30.78ZM46.078 33.5V19.1H44.078V33.5H46.078ZM45.078 20.1H56.678V18.1H45.078V20.1ZM56.678 20.1C57.0089 20.1 57.2986 20.1803 57.5674 20.3399L58.5885 18.6201C58.004 18.2731 57.3603 18.1 56.678 18.1V20.1ZM57.5674 20.3399C57.8503 20.5078 58.0702 20.7277 58.2381 21.0105L59.9578 19.9895C59.6191 19.419 59.159 18.9589 58.5885 18.6201L57.5674 20.3399ZM58.2454 21.0226C58.3979 21.2714 58.478 21.5491 58.478 21.88H60.478C60.478 21.1976 60.3047 20.5553 59.9506 19.9774L58.2454 21.0226ZM58.478 21.88V30.72H60.478V21.88H58.478ZM58.478 30.72C58.478 31.051 58.3977 31.3407 58.2381 31.6095L59.9578 32.6305C60.3049 32.046 60.478 31.4024 60.478 30.72H58.478ZM58.2454 31.5974C58.079 31.8689 57.8578 32.0877 57.5674 32.2601L58.5885 33.9799C59.1515 33.6456 59.6103 33.1978 59.9506 32.6426L58.2454 31.5974ZM57.5674 32.2601C57.2986 32.4197 57.0089 32.5 56.678 32.5V34.5C57.3603 34.5 58.004 34.3269 58.5885 33.9799L57.5674 32.2601ZM56.678 32.5H45.078V34.5H56.678V32.5ZM47.938 31.84H56.558V29.84H47.938V31.84ZM56.558 31.84C56.841 31.84 57.1115 31.7498 57.338 31.58L56.138 29.98C56.2577 29.8902 56.4083 29.84 56.558 29.84V31.84ZM57.4451 31.4871C57.6591 31.2731 57.818 30.9676 57.818 30.6H55.818C55.818 30.4956 55.8398 30.3887 55.8842 30.2889C55.9275 30.1913 55.9835 30.1203 56.0309 30.0729L57.4451 31.4871ZM57.818 30.6V22H55.818V30.6H57.818ZM57.818 22C57.818 21.6186 57.6431 21.2688 57.338 21.04L56.138 22.64C56.0553 22.578 55.9675 22.4851 55.9035 22.3572C55.8396 22.2294 55.818 22.1034 55.818 22H57.818ZM57.4451 21.1329C57.2311 20.9189 56.9256 20.76 56.558 20.76V22.76C56.4536 22.76 56.3467 22.7382 56.2468 22.6938C56.1493 22.6505 56.0782 22.5945 56.0309 22.5471L57.4451 21.1329ZM56.558 20.76H47.938V22.76H56.558V20.76ZM47.938 20.76C47.5704 20.76 47.2649 20.9189 47.0509 21.1329L48.4651 22.5471C48.4177 22.5945 48.3466 22.6505 48.2491 22.6938C48.1492 22.7382 48.0423 22.76 47.938 22.76V20.76ZM47.0509 21.1329C46.7901 21.3936 46.698 21.7191 46.698 22H48.698C48.698 22.0665 48.6879 22.1582 48.6493 22.2611C48.6095 22.3672 48.5467 22.4654 48.4651 22.5471L47.0509 21.1329ZM46.698 22V30.6H48.698V22H46.698ZM46.698 30.6C46.698 30.883 46.7881 31.1536 46.958 31.38L48.558 30.18C48.6478 30.2998 48.698 30.4503 48.698 30.6H46.698ZM47.158 31.58C47.3844 31.7498 47.6549 31.84 47.938 31.84V29.84C48.0877 29.84 48.2382 29.8902 48.358 29.98L47.158 31.58ZM66.0377 33.12L65.515 33.9727L65.5271 33.9799L66.0377 33.12ZM65.0377 32.12L64.1777 32.6306L64.1851 32.6426L65.0377 32.12ZM64.6577 29.62V28.62H63.6577V29.62H64.6577ZM67.2977 29.62H68.2977V28.62H67.2977V29.62ZM67.3577 30.78L66.5577 31.38L66.6434 31.4943L66.7577 31.58L67.3577 30.78ZM76.3177 30.78L77.0248 31.4871L76.3177 30.78ZM76.3177 27.7L75.6106 28.4071L75.6608 28.4574L75.7177 28.5L76.3177 27.7ZM66.0377 27.26L65.515 28.1127L65.5271 28.1199L66.0377 27.26ZM65.0377 26.26L64.1777 26.7706L64.1851 26.7826L65.0377 26.26ZM65.0377 20.5L65.8903 21.0226L65.8975 21.0105L65.0377 20.5ZM66.0377 19.48L65.5271 18.6201L65.5151 18.6274L66.0377 19.48ZM77.6577 19.48L77.135 20.3327L77.1471 20.3399L77.6577 19.48ZM78.6777 20.5L77.8177 21.0106L77.8251 21.0226L78.6777 20.5ZM79.0577 22.98V23.98H80.0577V22.98H79.0577ZM76.3977 22.98H75.3977V23.98H76.3977V22.98ZM76.3177 21.84L75.5177 22.44L75.6034 22.5543L75.7177 22.64L76.3177 21.84ZM67.3577 21.84L68.0648 22.5471L68.0648 22.5471L67.3577 21.84ZM67.3577 24.9L66.6505 25.6071L66.7008 25.6574L66.7577 25.7L67.3577 24.9ZM77.6577 25.34L77.135 26.1927L77.1471 26.1999L77.6577 25.34ZM78.6777 26.36L77.8177 26.8706L77.8251 26.8826L78.6777 26.36ZM78.6777 32.12L79.5303 32.6426L79.5375 32.6305L78.6777 32.12ZM77.6577 33.12L77.1471 32.2601L77.1351 32.2674L77.6577 33.12ZM67.4377 32.5C67.1067 32.5 66.817 32.4197 66.5482 32.2601L65.5271 33.9799C66.1117 34.3269 66.7553 34.5 67.4377 34.5V32.5ZM66.5602 32.2674C66.2814 32.0965 66.0612 31.8763 65.8903 31.5974L64.1851 32.6426C64.5208 33.1904 64.9673 33.6368 65.5151 33.9726L66.5602 32.2674ZM65.8975 31.6095C65.7379 31.3407 65.6577 31.051 65.6577 30.72H63.6577C63.6577 31.4024 63.8307 32.046 64.1778 32.6305L65.8975 31.6095ZM65.6577 30.72V29.62H63.6577V30.72H65.6577ZM64.6577 30.62H67.2977V28.62H64.6577V30.62ZM66.2977 29.62V30.6H68.2977V29.62H66.2977ZM66.2977 30.6C66.2977 30.883 66.3878 31.1536 66.5577 31.38L68.1577 30.18C68.2475 30.2998 68.2977 30.4503 68.2977 30.6H66.2977ZM66.7577 31.58C66.9841 31.7498 67.2546 31.84 67.5377 31.84V29.84C67.6874 29.84 67.8379 29.8902 67.9577 29.98L66.7577 31.58ZM67.5377 31.84H76.1577V29.84H67.5377V31.84ZM76.1577 31.84C76.4386 31.84 76.764 31.7478 77.0248 31.4871L75.6106 30.0729C75.6922 29.9912 75.7905 29.9284 75.8965 29.8887C75.9995 29.8501 76.0911 29.84 76.1577 29.84V31.84ZM77.0248 31.4871C77.2388 31.2731 77.3977 30.9676 77.3977 30.6H75.3977C75.3977 30.4956 75.4195 30.3887 75.4638 30.2889C75.5072 30.1913 75.5632 30.1203 75.6105 30.0729L77.0248 31.4871ZM77.3977 30.6V27.86H75.3977V30.6H77.3977ZM77.3977 27.86C77.3977 27.4786 77.2228 27.1289 76.9177 26.9L75.7177 28.5C75.6349 28.438 75.5472 28.3451 75.4832 28.2172C75.4193 28.0894 75.3977 27.9634 75.3977 27.86H77.3977ZM77.0248 26.9929C76.764 26.7322 76.4386 26.64 76.1577 26.64V28.64C76.0911 28.64 75.9995 28.6299 75.8965 28.5913C75.7905 28.5516 75.6922 28.4888 75.6106 28.4071L77.0248 26.9929ZM76.1577 26.64H67.4377V28.64H76.1577V26.64ZM67.4377 26.64C67.1067 26.64 66.817 26.5597 66.5482 26.4001L65.5271 28.1199C66.1117 28.4669 66.7553 28.64 67.4377 28.64V26.64ZM66.5602 26.4074C66.2814 26.2365 66.0611 26.0163 65.8903 25.7374L64.1851 26.7826C64.5208 27.3304 64.9673 27.7768 65.5151 28.1126L66.5602 26.4074ZM65.8975 25.7495C65.7404 25.4848 65.6577 25.1893 65.6577 24.84H63.6577C63.6577 25.5307 63.8283 26.1818 64.1778 26.7705L65.8975 25.7495ZM65.6577 24.84V21.88H63.6577V24.84H65.6577ZM65.6577 21.88C65.6577 21.5491 65.7378 21.2714 65.8903 21.0226L64.1851 19.9774C63.8309 20.5553 63.6577 21.1976 63.6577 21.88H65.6577ZM65.8975 21.0105C66.0699 20.7202 66.2888 20.499 66.5602 20.3326L65.5151 18.6274C64.9599 18.9677 64.5121 19.4265 64.1778 19.9895L65.8975 21.0105ZM66.5482 20.3399C66.817 20.1803 67.1067 20.1 67.4377 20.1V18.1C66.7553 18.1 66.1117 18.2731 65.5271 18.6201L66.5482 20.3399ZM67.4377 20.1H76.2777V18.1H67.4377V20.1ZM76.2777 20.1C76.6086 20.1 76.8863 20.1801 77.1351 20.3326L78.1802 18.6274C77.6024 18.2732 76.9601 18.1 76.2777 18.1V20.1ZM77.1471 20.3399C77.43 20.5078 77.6499 20.7277 77.8178 21.0105L79.5375 19.9895C79.1988 19.419 78.7387 18.9589 78.1682 18.6201L77.1471 20.3399ZM77.8251 21.0226C77.9775 21.2714 78.0577 21.5491 78.0577 21.88H80.0577C80.0577 21.1976 79.8844 20.5553 79.5303 19.9774L77.8251 21.0226ZM78.0577 21.88V22.98H80.0577V21.88H78.0577ZM79.0577 21.98H76.3977V23.98H79.0577V21.98ZM77.3977 22.98V22H75.3977V22.98H77.3977ZM77.3977 22C77.3977 21.6186 77.2228 21.2688 76.9177 21.04L75.7177 22.64C75.635 22.578 75.5472 22.4851 75.4832 22.3572C75.4193 22.2294 75.3977 22.1034 75.3977 22H77.3977ZM77.1177 21.24C76.8888 20.9349 76.5391 20.76 76.1577 20.76V22.76C76.0543 22.76 75.9283 22.7384 75.8004 22.6744C75.6726 22.6105 75.5797 22.5227 75.5177 22.44L77.1177 21.24ZM76.1577 20.76H67.5377V22.76H76.1577V20.76ZM67.5377 20.76C67.1701 20.76 66.8646 20.9189 66.6505 21.1329L68.0648 22.5471C68.0174 22.5945 67.9463 22.6505 67.8488 22.6938C67.7489 22.7382 67.642 22.76 67.5377 22.76V20.76ZM66.6506 21.1329C66.3898 21.3936 66.2977 21.7191 66.2977 22H68.2977C68.2977 22.0665 68.2876 22.1582 68.249 22.2611C68.2092 22.3672 68.1464 22.4655 68.0648 22.5471L66.6506 21.1329ZM66.2977 22V24.74H68.2977V22H66.2977ZM66.2977 24.74C66.2977 25.0209 66.3898 25.3464 66.6505 25.6071L68.0648 24.1929C68.1464 24.2746 68.2092 24.3728 68.249 24.4789C68.2876 24.5818 68.2977 24.6735 68.2977 24.74H66.2977ZM66.7577 25.7C66.9841 25.8698 67.2546 25.96 67.5377 25.96V23.96C67.6874 23.96 67.8379 24.0102 67.9577 24.1L66.7577 25.7ZM67.5377 25.96H76.2777V23.96H67.5377V25.96ZM76.2777 25.96C76.6086 25.96 76.8863 26.0401 77.1351 26.1926L78.1802 24.4874C77.6024 24.1332 76.9601 23.96 76.2777 23.96V25.96ZM77.1471 26.1999C77.43 26.3678 77.6499 26.5877 77.8178 26.8705L79.5375 25.8495C79.1988 25.279 78.7387 24.8189 78.1682 24.4801L77.1471 26.1999ZM77.8251 26.8826C77.975 27.1272 78.0577 27.4105 78.0577 27.76H80.0577C80.0577 27.0695 79.887 26.4195 79.5303 25.8374L77.8251 26.8826ZM78.0577 27.76V30.72H80.0577V27.76H78.0577ZM78.0577 30.72C78.0577 31.051 77.9774 31.3407 77.8178 31.6095L79.5375 32.6305C79.8846 32.046 80.0577 31.4024 80.0577 30.72H78.0577ZM77.8251 31.5974C77.6587 31.8689 77.4375 32.0877 77.1471 32.2601L78.1682 33.9799C78.7312 33.6456 79.1899 33.1978 79.5303 32.6426L77.8251 31.5974ZM77.1351 32.2674C76.8863 32.4199 76.6086 32.5 76.2777 32.5V34.5C76.9601 34.5 77.6024 34.3268 78.1802 33.9726L77.1351 32.2674ZM76.2777 32.5H67.4377V34.5H76.2777V32.5Z" fill="#0C2A40" mask="url(#path-2-outside-1_44_49)"/>
<circle cx="19.5" cy="17" r="4" fill="#D9D9D9" stroke="#0C2A40"/>
<path d="M89.024 33.5V24.108H84.32V21.98H95.84V24.108H91.152V33.5H89.024ZM98.3053 33.5C97.8999 33.5 97.5319 33.3987 97.2013 33.196C96.8706 32.9933 96.6039 32.7267 96.4013 32.396C96.1986 32.0653 96.0973 31.6973 96.0973 31.292V26.428C96.0973 26.0227 96.1986 25.6547 96.4013 25.324C96.6039 24.9933 96.8706 24.7267 97.2013 24.524C97.5319 24.3213 97.8999 24.22 98.3053 24.22H103.313C103.719 24.22 104.087 24.3213 104.417 24.524C104.759 24.7267 105.025 24.9933 105.217 25.324C105.42 25.6547 105.521 26.0227 105.521 26.428V31.292C105.521 31.6973 105.42 32.0653 105.217 32.396C105.025 32.7267 104.764 32.9933 104.433 33.196C104.103 33.3987 103.729 33.5 103.313 33.5H98.3053ZM98.3853 31.404H103.233C103.287 31.404 103.329 31.388 103.361 31.356C103.404 31.3133 103.425 31.2653 103.425 31.212V26.508C103.425 26.4547 103.404 26.412 103.361 26.38C103.329 26.3373 103.287 26.316 103.233 26.316H98.3853C98.3319 26.316 98.2839 26.3373 98.2413 26.38C98.2093 26.412 98.1933 26.4547 98.1933 26.508V31.212C98.1933 31.2653 98.2093 31.3133 98.2413 31.356C98.2839 31.388 98.3319 31.404 98.3853 31.404ZM112.162 33.5V21.98H114.29V26.668H116.994L120.93 21.98H123.234V22.588L118.914 27.74L123.25 32.892V33.5H120.93L116.994 28.812H114.29V33.5H112.162ZM124.864 33.5V24.22H132.08C132.485 24.22 132.853 24.3213 133.184 24.524C133.525 24.7267 133.792 24.9933 133.984 25.324C134.187 25.6547 134.288 26.0227 134.288 26.428V33.5H132.192V26.508C132.192 26.4547 132.171 26.412 132.128 26.38C132.096 26.3373 132.053 26.316 132 26.316H127.152C127.099 26.316 127.051 26.3373 127.008 26.38C126.976 26.412 126.96 26.4547 126.96 26.508V33.5H124.864ZM137.821 33.5C137.416 33.5 137.048 33.3987 136.717 33.196C136.386 32.9933 136.12 32.7267 135.917 32.396C135.714 32.0653 135.613 31.6973 135.613 31.292V26.428C135.613 26.0227 135.714 25.6547 135.917 25.324C136.12 24.9933 136.386 24.7267 136.717 24.524C137.048 24.3213 137.416 24.22 137.821 24.22H142.829C143.234 24.22 143.602 24.3213 143.933 24.524C144.274 24.7267 144.541 24.9933 144.733 25.324C144.936 25.6547 145.037 26.0227 145.037 26.428V31.292C145.037 31.6973 144.936 32.0653 144.733 32.396C144.541 32.7267 144.28 32.9933 143.949 33.196C143.618 33.3987 143.245 33.5 142.829 33.5H137.821ZM137.901 31.404H142.749C142.802 31.404 142.845 31.388 142.877 31.356C142.92 31.3133 142.941 31.2653 142.941 31.212V26.508C142.941 26.4547 142.92 26.412 142.877 26.38C142.845 26.3373 142.802 26.316 142.749 26.316H137.901C137.848 26.316 137.8 26.3373 137.757 26.38C137.725 26.412 137.709 26.4547 137.709 26.508V31.212C137.709 31.2653 137.725 31.3133 137.757 31.356C137.8 31.388 137.848 31.404 137.901 31.404ZM149.13 33.5L145.482 24.22H147.706L149.962 29.692L152.33 24.22H154.506L157.034 29.724L159.13 24.22H161.354L157.866 33.5H156.234L153.434 27.308L150.762 33.5H149.13Z" fill="#0C2A40"/>
</svg>
