<svg width="22" height="22" viewBox="0 0 22 22" fill="none" xmlns="http://www.w3.org/2000/svg">
<path fill-rule="evenodd" clip-rule="evenodd" d="M3.74295 15.1166H13.9027C15.9196 15.1166 16.9271 15.1166 17.5537 14.5257C18.1804 13.9348 18.1804 12.985 18.1804 11.0833V6.04163C18.1804 4.13991 18.1804 3.19006 17.5537 2.59918C16.9271 2.0083 15.9196 2.0083 13.9027 2.0083H5.34711C3.33014 2.0083 2.32272 2.0083 1.69603 2.59918C1.06934 3.19006 1.06934 4.13991 1.06934 6.04163V17.6374C1.06934 16.9689 1.35102 16.3277 1.85242 15.8549C2.35382 15.3822 3.03386 15.1166 3.74295 15.1166ZM6.41656 5.03329C5.84929 5.03329 5.30525 5.24576 4.90413 5.62396C4.50301 6.00216 4.27767 6.5151 4.27767 7.04996C4.27767 7.58481 4.50301 8.09775 4.90413 8.47595C5.30525 8.85415 5.84929 9.06662 6.41656 9.06662H12.8332C13.4005 9.06662 13.9445 8.85415 14.3456 8.47595C14.7468 8.09775 14.9721 7.58481 14.9721 7.04996C14.9721 6.5151 14.7468 6.00216 14.3456 5.62396C13.9445 5.24576 13.4005 5.03329 12.8332 5.03329H6.41656Z" fill="#E3E3E3"/>
<path d="M13.9028 14.1083H3.74306V16.125H13.9028V14.1083ZM16.7978 13.8129C16.7165 13.8895 16.571 13.9843 16.1069 14.0438C15.6128 14.1063 14.9412 14.1083 13.9028 14.1083V16.125C14.8813 16.125 15.7219 16.127 16.3924 16.0423C17.0929 15.9536 17.7656 15.7529 18.31 15.2386L16.7978 13.8129ZM17.1111 11.0833C17.1111 12.0624 17.109 12.6956 17.0427 13.1615C16.9796 13.5991 16.879 13.7362 16.7978 13.8129L18.31 15.2386C18.8554 14.7244 19.0682 14.0912 19.1623 13.4307C19.2521 12.7975 19.25 12.0059 19.25 11.0833H17.1111ZM17.1111 6.04166V11.0833H19.25V6.04166H17.1111ZM16.7978 3.31211C16.879 3.38874 16.9796 3.52587 17.0427 3.96349C17.109 4.42833 17.1111 5.06257 17.1111 6.04166H19.25C19.25 5.11904 19.2521 4.32649 19.1623 3.69426C19.0682 3.03381 18.8554 2.39957 18.31 1.88633L16.7978 3.31211ZM13.9028 3.01667C14.9412 3.01667 15.6128 3.01868 16.1069 3.0812C16.571 3.14069 16.7165 3.23547 16.7978 3.31211L18.31 1.88633C17.7645 1.37208 17.0929 1.17142 16.3924 1.08269C15.7208 0.997988 14.8813 1 13.9028 1V3.01667ZM5.34722 3.01667H13.9028V1H5.34722V3.01667ZM2.45224 3.31211C2.53352 3.23547 2.67896 3.14069 3.1431 3.0812C3.63611 3.01868 4.30879 3.01667 5.34722 3.01667V1C4.36868 1 3.5281 0.997988 2.85756 1.08269C2.15707 1.17142 1.48439 1.37208 0.940046 1.88633L2.45224 3.31211ZM2.13889 6.04166C2.13889 5.06257 2.14103 4.42934 2.20734 3.96349C2.27043 3.52587 2.37096 3.38874 2.45224 3.31211L0.940046 1.88633C0.394629 2.40058 0.18181 3.03381 0.0876988 3.69426C-0.00213445 4.3275 4.41907e-06 5.11904 4.41907e-06 6.04166H2.13889ZM2.13889 17.6375V6.04166H4.41907e-06V17.6375H2.13889ZM3.74306 14.1083C2.75034 14.1083 1.79828 14.4801 1.09632 15.142C0.394361 15.8038 4.41907e-06 16.7015 4.41907e-06 17.6375H2.13889C2.13889 17.2363 2.3079 16.8516 2.60874 16.568C2.90958 16.2843 3.31761 16.125 3.74306 16.125V14.1083ZM5.34722 7.04999C5.34722 6.78256 5.4599 6.52609 5.66046 6.33699C5.86102 6.14789 6.13303 6.04166 6.41667 6.04166V4.025C5.56577 4.025 4.74971 4.3437 4.14804 4.911C3.54636 5.47829 3.20834 6.24771 3.20834 7.04999H5.34722ZM6.41667 8.05832C6.13303 8.05832 5.86102 7.95209 5.66046 7.76299C5.4599 7.57389 5.34722 7.31742 5.34722 7.04999H3.20834C3.20834 7.85227 3.54636 8.62169 4.14804 9.18898C4.74971 9.75628 5.56577 10.075 6.41667 10.075V8.05832ZM12.8333 8.05832H6.41667V10.075H12.8333V8.05832ZM13.9028 7.04999C13.9028 7.31742 13.7901 7.57389 13.5895 7.76299C13.389 7.95209 13.117 8.05832 12.8333 8.05832V10.075C13.6842 10.075 14.5003 9.75628 15.102 9.18898C15.7036 8.62169 16.0417 7.85227 16.0417 7.04999H13.9028ZM12.8333 6.04166C13.117 6.04166 13.389 6.14789 13.5895 6.33699C13.7901 6.52609 13.9028 6.78256 13.9028 7.04999H16.0417C16.0417 6.24771 15.7036 5.47829 15.102 4.911C14.5003 4.3437 13.6842 4.025 12.8333 4.025V6.04166ZM6.41667 6.04166H12.8333V4.025H6.41667V6.04166ZM8.55556 19.15H3.74306V21.1666H8.55556V19.15ZM4.41907e-06 17.6375C4.41907e-06 18.5735 0.394361 19.4711 1.09632 20.133C1.79828 20.7948 2.75034 21.1666 3.74306 21.1666V19.15C3.31761 19.15 2.90958 18.9906 2.60874 18.707C2.3079 18.4233 2.13889 18.0386 2.13889 17.6375H4.41907e-06Z" fill="#E3E3E3"/>
<path d="M18.1808 20.1582H7.48633" stroke="#E3E3E3" stroke-width="2" stroke-linecap="round"/>
</svg>
