<svg width="30" height="30" viewBox="0 0 30 30" fill="none" xmlns="http://www.w3.org/2000/svg">
<path d="M15.5 16C16.8807 16 18 14.8807 18 13.5C18 12.1193 16.8807 11 15.5 11C14.1193 11 13 12.1193 13 13.5C13 14.8807 14.1193 16 15.5 16Z" fill="#E3E3E3"/>
<path d="M23 2H8C7.20435 2 6.44129 2.26925 5.87868 2.7485C5.31607 3.22776 5 3.87778 5 4.55556V22.4444C5 23.1222 5.31607 23.7722 5.87868 24.2515C6.44129 24.7308 7.20435 25 8 25H23C23.7957 25 24.5587 24.7308 25.1213 24.2515C25.6839 23.7722 26 23.1222 26 22.4444V4.55556C26 3.87778 25.6839 3.22776 25.1213 2.7485C24.5587 2.26925 23.7957 2 23 2ZM23 14.4583L20.945 14.7778C20.8193 15.1941 20.6275 15.5939 20.375 15.9661L21.605 17.3333L20 18.7006L18.32 17.6528C17.8831 17.8679 17.4138 18.0313 16.925 18.1383L16.625 19.8889H14.375L14 18.1383C13.5112 18.0313 13.0419 17.8679 12.605 17.6528L11 18.7006L9.395 17.3333L10.625 15.9022C10.3786 15.55 10.187 15.1721 10.055 14.7778L8 14.4583V12.5417L10.055 12.2222C10.1807 11.8059 10.3725 11.4061 10.625 11.0339L9.395 9.66667L11 8.29944L12.68 9.34722C13.0934 9.1373 13.5371 8.97408 14 8.86167L14.375 7.11111H16.625L17 8.86167C17.4888 8.96874 17.9581 9.1321 18.395 9.34722L20 8.29944L21.605 9.66667L20.375 11.0978C20.6275 11.47 20.8193 11.8698 20.945 12.2861L23 12.5417V14.4583Z" fill="#E3E3E3"/>
</svg>
