<svg width="24" height="24" viewBox="0 0 24 24" fill="none" xmlns="http://www.w3.org/2000/svg">
<path d="M10.0294 2H15.9706C17.2026 2 18.1796 2 18.966 2.06431C19.7715 2.12974 20.4518 2.26738 21.0746 2.58328C22.0828 3.09757 22.9023 3.91786 23.4156 4.92656C23.7326 5.54708 23.8703 6.22851 23.9357 7.03405C24 7.82041 24 8.79744 24 10.0294V15.9706C24 17.2026 24 18.1796 23.9357 18.966C23.8703 19.7715 23.7326 20.4518 23.4167 21.0746C22.9027 22.0826 22.0829 22.9021 21.0746 23.4156C20.4518 23.7326 19.7715 23.8703 18.966 23.9357C18.1796 24 17.2026 24 15.9706 24H10.0294C8.79744 24 7.82041 24 7.03405 23.9357C6.22851 23.8703 5.54821 23.7326 4.92656 23.4167C3.91811 22.9029 3.09821 22.083 2.58441 21.0746C2.26738 20.4518 2.12974 19.7715 2.06431 18.966C2 18.1796 2 17.2026 2 15.9706V10.0294C2 8.79744 2 7.82041 2.06431 7.03405C2.12974 6.22851 2.26738 5.54821 2.58328 4.92656C3.09738 3.91793 3.91769 3.09802 4.92656 2.58441C5.54708 2.26738 6.22851 2.12974 7.03405 2.06431C7.82041 2 8.79744 2 10.0294 2ZM9.08513 9.01744C8.92473 8.86797 8.71257 8.7866 8.49336 8.79047C8.27415 8.79434 8.065 8.88314 7.90997 9.03817C7.75494 9.1932 7.66613 9.40235 7.66226 9.62157C7.6584 9.84078 7.73977 10.0529 7.88923 10.2133L10.6759 13L7.88923 15.7867C7.8061 15.8641 7.73942 15.9575 7.69317 16.0613C7.64692 16.1651 7.62206 16.2772 7.62005 16.3908C7.61805 16.5044 7.63895 16.6173 7.6815 16.7226C7.72406 16.828 7.7874 16.9237 7.86775 17.004C7.9481 17.0844 8.04381 17.1477 8.14917 17.1903C8.25453 17.2329 8.36739 17.2537 8.481 17.2517C8.59461 17.2497 8.70666 17.2249 8.81045 17.1786C8.91425 17.1324 9.00766 17.0657 9.08513 16.9826L12.4697 13.5979C12.6282 13.4393 12.7172 13.2242 12.7172 13C12.7172 12.7758 12.6282 12.5607 12.4697 12.4021L9.08513 9.01744ZM14.1282 15.5385C13.9038 15.5385 13.6886 15.6276 13.5299 15.7863C13.3712 15.945 13.2821 16.1602 13.2821 16.3846C13.2821 16.609 13.3712 16.8243 13.5299 16.9829C13.6886 17.1416 13.9038 17.2308 14.1282 17.2308H17.5128C17.7372 17.2308 17.9525 17.1416 18.1111 16.9829C18.2698 16.8243 18.359 16.609 18.359 16.3846C18.359 16.1602 18.2698 15.945 18.1111 15.7863C17.9525 15.6276 17.7372 15.5385 17.5128 15.5385H14.1282Z" fill="#E3E3E3"/>
</svg>
